<?xml version="1.0" standalone="no"?>
<!DOCTYPE svg PUBLIC "-//W3C//DTD SVG 20010904//EN"
 "http://www.w3.org/TR/2001/REC-SVG-20010904/DTD/svg10.dtd">
<svg version="1.0" xmlns="http://www.w3.org/2000/svg"
 width="1200.000000pt" height="1200.000000pt" viewBox="0 0 1200.000000 1200.000000"
 preserveAspectRatio="xMidYMid meet">

<g transform="translate(0.000000,1200.000000) scale(0.100000,-0.100000)"
fill="#000000" stroke="none">
<path d="M3830 8212 c0 -1212 1 -1257 45 -1462 122 -582 485 -1095 995 -1405
364 -222 761 -326 1190 -312 346 12 618 80 915 229 219 110 370 220 559 406
346 342 556 769 621 1265 13 101 15 290 15 1278 l0 1159 -2170 0 -2170 0 0
-1158z m2100 38 l0 -980 -980 0 -980 0 0 980 0 980 980 0 980 0 0 -980z m300
0 l0 -980 -80 0 -80 0 0 980 0 980 80 0 80 0 0 -980z m300 0 l0 -980 -80 0
-80 0 0 980 0 980 80 0 80 0 0 -980z m300 0 l0 -980 -80 0 -80 0 0 980 0 980
80 0 80 0 0 -980z m300 0 l0 -980 -80 0 -80 0 0 980 0 980 80 0 80 0 0 -980z
m300 0 l0 -980 -80 0 -80 0 0 980 0 980 80 0 80 0 0 -980z m300 0 l0 -980 -80
0 -80 0 0 980 0 980 80 0 80 0 0 -980z m300 0 l0 -980 -80 0 -80 0 0 980 0
980 80 0 80 0 0 -980z m-2105 -2100 l0 -975 -55 3 c-164 7 -406 58 -568 118
-660 246 -1150 817 -1287 1499 -13 66 -27 156 -30 200 -4 44 -8 90 -10 102 -2
12 -1 24 3 27 3 3 442 5 976 4 l971 -3 0 -975z m2096 975 c10 -9 -13 -216 -36
-330 -92 -452 -342 -866 -705 -1165 -300 -248 -736 -424 -1107 -447 l-103 -6
0 970 c0 533 3 973 7 976 7 8 1937 10 1944 2z"/>
<path d="M4750 8710 l0 -100 45 0 45 0 0 100 0 100 -45 0 -45 0 0 -100z"/>
<path d="M4950 8685 l0 -75 50 0 50 0 0 75 0 75 -50 0 -50 0 0 -75z"/>
<path d="M4390 8298 c0 -255 1 -264 24 -314 13 -28 41 -65 62 -82 72 -60 98
-63 441 -60 293 3 310 4 348 24 22 12 53 35 69 50 35 35 76 119 76 157 0 26 2
27 49 27 53 0 99 25 135 73 19 26 21 44 24 208 l4 179 -616 0 -616 0 0 -262z
m920 -47 c0 -199 -1 -209 -22 -241 -47 -68 -58 -70 -394 -70 -296 0 -302 0
-334 23 -73 49 -75 55 -78 288 l-3 209 415 0 416 0 0 -209z m210 96 c0 -131
-7 -146 -68 -154 l-42 -6 0 137 0 136 55 0 55 0 0 -113z"/>
<path d="M4334 7735 l0 -45 563 0 563 0 0 45 0 45 -563 0 -563 0 0 -45z"/>
<path d="M4944 3921 c-66 -16 -112 -68 -122 -138 -5 -37 -8 -790 -3 -875 1
-15 11 -18 66 -18 l65 0 0 315 0 315 163 2 162 3 0 70 0 70 -162 3 -163 2 0
38 c0 69 7 71 175 74 l150 3 0 70 0 70 -150 2 c-82 0 -164 -2 -181 -6z"/>
<path d="M2610 3375 l0 -485 70 0 70 0 0 205 0 205 355 0 355 0 0 -205 0 -205
70 0 70 0 0 485 0 485 -70 0 -70 0 0 -205 0 -205 -355 0 -355 0 0 205 0 205
-70 0 -70 0 0 -485z"/>
<path d="M7190 3375 l0 -485 70 0 70 0 2 387 3 387 189 -224 c104 -124 194
-231 201 -238 9 -10 54 37 211 224 l199 237 3 -386 2 -387 70 0 70 0 0 485 0
485 -82 0 -83 0 -180 -216 c-98 -118 -184 -219 -191 -225 -8 -7 -65 55 -199
216 l-188 225 -84 0 -83 0 0 -485z"/>
<path d="M8500 3375 l0 -485 483 0 484 0 1 75 1 75 -414 0 -415 0 0 410 0 410
-70 0 -70 0 0 -485z"/>
<path d="M3810 3595 l0 -75 323 -2 322 -3 3 -82 3 -83 -326 0 -327 0 4 -167
c3 -155 5 -171 26 -205 13 -20 40 -47 60 -60 36 -23 42 -23 370 -26 l332 -3 0
326 c0 353 0 354 -57 407 -46 43 -85 48 -420 48 l-313 0 0 -75z m650 -470 l0
-85 -243 0 c-176 0 -246 3 -255 12 -7 7 -12 42 -12 85 l0 73 255 0 255 0 0
-85z"/>
<path d="M5555 3655 c-49 -17 -90 -62 -104 -112 -6 -22 -11 -138 -11 -273 0
-207 3 -240 19 -275 10 -22 28 -48 39 -58 47 -42 82 -46 415 -47 l317 0 0 75
0 75 -319 0 c-282 0 -320 2 -325 16 -3 9 -6 47 -6 85 l0 69 325 0 325 0 0 160
c0 113 -4 170 -14 193 -17 42 -66 83 -114 97 -59 16 -498 12 -547 -5z m533
-222 l3 -83 -256 0 -255 0 0 73 c0 44 5 78 12 85 9 9 74 12 253 10 l240 -3 3
-82z"/>
<path d="M6543 3659 c-44 -13 -100 -70 -112 -116 -7 -23 -11 -162 -11 -345 l0
-308 70 0 70 0 0 296 c0 184 4 303 10 315 10 18 23 19 235 19 l225 0 0 75 0
75 -227 -1 c-126 0 -243 -5 -260 -10z"/>
</g>
</svg>
