<?xml version="1.0" standalone="no"?>
<!DOCTYPE svg PUBLIC "-//W3C//DTD SVG 20010904//EN"
 "http://www.w3.org/TR/2001/REC-SVG-20010904/DTD/svg10.dtd">
<svg version="1.0" xmlns="http://www.w3.org/2000/svg"
 width="1200.000000pt" height="1200.000000pt" viewBox="0 0 1200.000000 1200.000000"
 preserveAspectRatio="xMidYMid meet">

<g transform="translate(0.000000,1200.000000) scale(0.100000,-0.100000)"
fill="#000000" stroke="none">
<path d="M3833 8158 c3 -1199 4 -1214 25 -1328 90 -471 291 -853 618 -1176
355 -351 798 -559 1304 -615 129 -14 415 -6 555 16 359 56 746 226 1021 450
96 78 264 245 337 335 253 312 422 722 467 1135 6 54 10 550 10 1243 l0 1152
-2170 0 -2171 0 4 -1212z m2097 92 l0 -980 -980 0 -980 0 0 980 0 980 980 0
980 0 0 -980z m300 0 l0 -980 -80 0 -80 0 0 980 0 980 80 0 80 0 0 -980z m300
0 l0 -980 -80 0 -80 0 0 980 0 980 80 0 80 0 0 -980z m300 0 l0 -980 -80 0
-80 0 0 980 0 980 80 0 80 0 0 -980z m300 0 l0 -980 -80 0 -80 0 0 980 0 980
80 0 80 0 0 -980z m300 0 l0 -980 -80 0 -80 0 0 980 0 980 80 0 80 0 0 -980z
m300 0 l0 -980 -80 0 -80 0 0 980 0 980 80 0 80 0 0 -980z m300 0 l0 -980 -80
0 -80 0 0 980 0 980 80 0 80 0 0 -980z m-2102 -2097 l-3 -978 -25 0 c-131 2
-379 48 -538 100 -131 42 -356 152 -477 232 -446 295 -765 767 -870 1287 -24
120 -46 313 -38 329 2 4 443 7 979 7 l974 0 -2 -977z m2094 912 c-23 -444
-225 -909 -543 -1249 -253 -271 -605 -481 -968 -577 -108 -28 -305 -59 -378
-59 l-63 0 0 975 0 975 978 -2 977 -3 -3 -60z"/>
<path d="M4750 8710 l0 -100 45 0 45 0 0 100 0 100 -45 0 -45 0 0 -100z"/>
<path d="M4950 8685 l0 -75 50 0 50 0 0 75 0 75 -50 0 -50 0 0 -75z"/>
<path d="M4390 8298 c0 -255 1 -264 24 -314 13 -28 41 -65 62 -82 72 -60 98
-63 441 -60 294 3 310 4 349 25 78 42 131 114 141 194 l6 39 47 0 c52 0 99 25
134 73 19 26 21 44 24 208 l4 179 -616 0 -616 0 0 -262z m920 -47 c0 -199 -1
-209 -22 -241 -47 -68 -58 -70 -394 -70 -296 0 -302 0 -334 23 -73 49 -75 55
-78 288 l-3 209 415 0 416 0 0 -209z m210 96 c0 -131 -7 -146 -68 -154 l-42
-6 0 137 0 136 55 0 55 0 0 -113z"/>
<path d="M4333 7735 l1 -45 563 0 563 0 0 45 0 45 -564 0 -565 0 2 -45z"/>
<path d="M4938 3920 c-44 -13 -84 -47 -104 -87 -17 -35 -18 -74 -19 -490 l0
-453 67 0 68 0 0 315 0 315 163 2 162 3 1 73 1 72 -163 0 -164 0 0 38 c0 69 7
71 175 74 l150 3 1 73 1 72 -156 -1 c-86 0 -168 -4 -183 -9z"/>
<path d="M2610 3375 l0 -485 70 0 70 0 0 205 0 205 355 0 355 0 0 -205 0 -205
70 0 70 0 0 485 0 485 -70 0 -70 0 0 -205 0 -205 -355 0 -355 0 0 205 0 205
-70 0 -70 0 0 -485z"/>
<path d="M7190 3375 l0 -485 70 0 70 0 2 387 3 386 189 -224 c104 -123 194
-230 201 -237 9 -10 52 35 211 224 l199 237 3 -387 2 -386 70 0 70 0 0 485 0
485 -82 0 -83 0 -189 -226 -190 -226 -20 25 c-12 13 -97 115 -190 226 l-169
201 -84 0 -83 0 0 -485z"/>
<path d="M8500 3375 l0 -485 485 0 485 0 0 75 0 75 -415 0 -415 0 0 410 0 410
-70 0 -70 0 0 -485z"/>
<path d="M3810 3596 l0 -76 323 -2 322 -3 3 -82 3 -83 -326 0 -325 0 0 -147
c0 -82 5 -166 11 -188 14 -50 64 -100 114 -114 25 -7 157 -11 353 -11 l313 0
-3 338 -3 338 -25 31 c-56 69 -49 68 -422 71 l-338 3 0 -75z m650 -471 l0 -85
-243 0 c-176 0 -246 3 -255 12 -7 7 -12 42 -12 85 l0 73 255 0 255 0 0 -85z"/>
<path d="M5557 3656 c-50 -18 -76 -42 -98 -91 -16 -35 -19 -68 -19 -285 0
-217 3 -250 19 -285 10 -22 28 -48 39 -58 47 -42 82 -46 415 -47 l317 0 0 75
0 75 -313 0 c-230 0 -316 3 -325 12 -7 7 -12 42 -12 85 l0 73 325 0 325 0 0
168 c0 188 -5 204 -76 258 l-37 29 -261 2 c-204 2 -269 0 -299 -11z m531 -223
l3 -83 -256 0 -255 0 0 73 c0 44 5 78 12 85 9 9 74 12 253 10 l240 -3 3 -82z"/>
<path d="M6535 3655 c-49 -17 -90 -62 -104 -112 -7 -23 -11 -160 -11 -345 l0
-308 70 0 70 0 0 296 c0 184 4 303 10 315 10 18 23 19 235 19 l225 0 0 75 0
75 -227 0 c-170 -1 -238 -4 -268 -15z"/>
</g>
</svg>
